<svg id="Icons" height="512" viewBox="0 0 74 74" width="512" xmlns="http://www.w3.org/2000/svg"><path d="m41.38 58.53a1 1 0 0 1 -.71-.29l-30.52-30.52a1 1 0 0 1 -.3-.71 1 1 0 0 1 .3-.7l16.16-16.16a1 1 0 0 1 1.41 0l30.52 30.52a1 1 0 0 1 0 1.41l-16.16 16.16a1 1 0 0 1 -.7.29zm-29.11-31.53 29.11 29.12 14.74-14.74-29.12-29.11z"/><path d="m61.61 68.82a1 1 0 0 1 -.71-.29l-15.26-15.26a1 1 0 0 1 0-1.42l6.21-6.21a1 1 0 0 1 1.42 0l15.26 15.26a1 1 0 0 1 0 1.42l-6.21 6.21a1 1 0 0 1 -.71.29zm-13.85-16.26 13.85 13.85 4.8-4.8-13.85-13.84z"/><path d="m14.89 24a1 1 0 0 1 -.7-.29l-4.49-4.52a1 1 0 0 1 0-1.41l8.08-8.08a1 1 0 0 1 1.41 0l4.49 4.49a1 1 0 0 1 0 1.41l-8.08 8.08a1 1 0 0 1 -.71.32zm-3.07-5.48 3.07 3.07 6.67-6.67-3.07-3.07z"/><path d="m14.45 15.45a1 1 0 0 1 -.71-.3l-11.45-11.44a1 1 0 0 1 1.42-1.42l11.44 11.45a1 1 0 0 1 0 1.41 1 1 0 0 1 -.7.3z"/><path d="m58.43 72a1 1 0 0 1 -.7-.29 1 1 0 0 1 0-1.42l12.56-12.56a1 1 0 0 1 1.42 1.41l-12.57 12.57a1 1 0 0 1 -.71.29z"/><path d="m34.94 52.1a1 1 0 0 1 -.7-.29 1 1 0 0 1 0-1.42l3.89-3.89a1 1 0 0 1 1.41 0 1 1 0 0 1 0 1.42l-3.89 3.89a1 1 0 0 1 -.71.29z"/><path d="m29.06 46.22a1 1 0 0 1 -.71-1.71l4.79-4.79a1 1 0 0 1 1.41 0 1 1 0 0 1 0 1.42l-4.79 4.78a1 1 0 0 1 -.7.3z"/><path d="m23.17 40.33a1 1 0 0 1 -.7-1.71l3.89-3.89a1 1 0 0 1 1.41 0 1 1 0 0 1 0 1.42l-3.89 3.85a1 1 0 0 1 -.71.33z"/><path d="m17.29 34.45a1 1 0 0 1 -.71-1.71l4.79-4.74a1 1 0 0 1 1.41 0 1 1 0 0 1 0 1.42l-4.78 4.73a1 1 0 0 1 -.71.3z"/></svg>